<svg width="32" height="32" viewBox="0 0 32 32" fill="none" xmlns="http://www.w3.org/2000/svg">
<path d="M30.4 19.2C29.9757 19.2 29.5687 19.3686 29.2686 19.6686C28.9686 19.9687 28.8 20.3757 28.8 20.8V27.2C28.8 27.6243 28.6314 28.0313 28.3314 28.3314C28.0313 28.6314 27.6243 28.8 27.2 28.8H4.8C4.37565 28.8 3.96869 28.6314 3.66863 28.3314C3.36857 28.0313 3.2 27.6243 3.2 27.2V20.8C3.2 20.3757 3.03143 19.9687 2.73137 19.6686C2.43131 19.3686 2.02435 19.2 1.6 19.2C1.17565 19.2 0.768687 19.3686 0.468629 19.6686C0.168571 19.9687 0 20.3757 0 20.8V27.2C0 28.473 0.505713 29.6939 1.40589 30.5941C2.30606 31.4943 3.52696 32 4.8 32H27.2C28.473 32 29.6939 31.4943 30.5941 30.5941C31.4943 29.6939 32 28.473 32 27.2V20.8C32 20.3757 31.8314 19.9687 31.5314 19.6686C31.2313 19.3686 30.8243 19.2 30.4 19.2ZM14.864 21.936C15.0162 22.0817 15.1956 22.1958 15.392 22.272C15.5835 22.3566 15.7906 22.4004 16 22.4004C16.2094 22.4004 16.4165 22.3566 16.608 22.272C16.8044 22.1958 16.9838 22.0817 17.136 21.936L23.536 15.536C23.8373 15.2347 24.0065 14.8261 24.0065 14.4C24.0065 13.9739 23.8373 13.5653 23.536 13.264C23.2347 12.9627 22.8261 12.7935 22.4 12.7935C21.9739 12.7935 21.5653 12.9627 21.264 13.264L17.6 16.944V1.6C17.6 1.17565 17.4314 0.768687 17.1314 0.468629C16.8313 0.168571 16.4243 0 16 0C15.5757 0 15.1687 0.168571 14.8686 0.468629C14.5686 0.768687 14.4 1.17565 14.4 1.6V16.944L10.736 13.264C10.5868 13.1148 10.4097 12.9965 10.2148 12.9157C10.0199 12.835 9.81097 12.7935 9.6 12.7935C9.38903 12.7935 9.18012 12.835 8.9852 12.9157C8.79029 12.9965 8.61318 13.1148 8.464 13.264C8.31482 13.4132 8.19648 13.5903 8.11574 13.7852C8.03501 13.9801 7.99345 14.189 7.99345 14.4C7.99345 14.611 8.03501 14.8199 8.11574 15.0148C8.19648 15.2097 8.31482 15.3868 8.464 15.536L14.864 21.936Z" fill="white"/>
</svg>
