<svg width="27" height="20" viewBox="0 0 27 20" fill="none" xmlns="http://www.w3.org/2000/svg">
<path d="M26.2424 0.931044C25.7625 0.334715 25.1133 0 24.4367 0C23.76 0 23.1109 0.334715 22.631 0.931044L13.436 12.2652L4.36903 0.931044C3.88914 0.334715 3.23998 0 2.56333 0C1.88667 0 1.23751 0.334715 0.757623 0.931044C0.517558 1.22869 0.327013 1.5828 0.19698 1.97297C0.0669468 2.36313 0 2.78162 0 3.20428C0 3.62695 0.0669468 4.04544 0.19698 4.4356C0.327013 4.82576 0.517558 5.17988 0.757623 5.47752L11.6175 19.0529C11.8556 19.353 12.1388 19.5912 12.451 19.7538C12.7631 19.9163 13.0978 20 13.436 20C13.7741 20 14.1089 19.9163 14.421 19.7538C14.7331 19.5912 15.0164 19.353 15.2545 19.0529L26.2424 5.47752C26.4824 5.17988 26.673 4.82576 26.803 4.4356C26.9331 4.04544 27 3.62695 27 3.20428C27 2.78162 26.9331 2.36313 26.803 1.97297C26.673 1.5828 26.4824 1.22869 26.2424 0.931044Z" fill="#828282"/>
</svg>
