<svg width="29" height="29" viewBox="0 0 29 29" fill="none" xmlns="http://www.w3.org/2000/svg">
<path d="M28.1426 9.61375C28.1426 9.61375 28.1426 9.61375 28.1426 9.54103C27.1189 6.7434 25.2614 4.32799 22.8214 2.62155C20.3814 0.915114 17.4766 0 14.5 0C11.5234 0 8.61863 0.915114 6.17863 2.62155C3.73862 4.32799 1.88113 6.7434 0.857428 9.54103C0.857428 9.54103 0.857428 9.54103 0.857428 9.61375C-0.285809 12.7708 -0.285809 16.2292 0.857428 19.3863C0.857428 19.3863 0.857428 19.3863 0.857428 19.459C1.88113 22.2566 3.73862 24.672 6.17863 26.3784C8.61863 28.0849 11.5234 29 14.5 29C17.4766 29 20.3814 28.0849 22.8214 26.3784C25.2614 24.672 27.1189 22.2566 28.1426 19.459C28.1426 19.459 28.1426 19.459 28.1426 19.3863C29.2858 16.2292 29.2858 12.7708 28.1426 9.61375ZM3.22563 17.4085C2.72181 15.5023 2.72181 13.4977 3.22563 11.5915H5.92799C5.69558 13.5235 5.69558 15.4765 5.92799 17.4085H3.22563ZM4.41699 20.317H6.45103C6.79205 21.6139 7.27948 22.8678 7.90391 24.0544C6.47907 23.0828 5.28799 21.8062 4.41699 20.317ZM6.45103 8.68303H4.41699C5.27546 7.19837 6.45131 5.9221 7.86032 4.94563C7.25092 6.1341 6.77813 7.38791 6.45103 8.68303ZM13.0181 25.6977C11.2336 24.3869 9.9803 22.4769 9.48755 20.317H13.0181V25.6977ZM13.0181 17.4085H8.86281C8.59169 15.479 8.59169 13.521 8.86281 11.5915H13.0181V17.4085ZM13.0181 8.68303H9.48755C9.9803 6.52314 11.2336 4.61307 13.0181 3.30233V8.68303ZM24.5249 8.68303H22.4909C22.1498 7.38608 21.6624 6.1322 21.038 4.94563C22.4628 5.91716 23.6539 7.1938 24.5249 8.68303ZM15.9238 3.30233C17.7083 4.61307 18.9616 6.52314 19.4543 8.68303H15.9238V3.30233ZM15.9238 25.6977V20.317H19.4543C18.9616 22.4769 17.7083 24.3869 15.9238 25.6977ZM20.0791 17.4085H15.9238V11.5915H20.0791C20.3502 13.521 20.3502 15.479 20.0791 17.4085ZM21.0816 24.0544C21.706 22.8678 22.1934 21.6139 22.5344 20.317H24.5685C23.6975 21.8062 22.5064 23.0828 21.0816 24.0544ZM25.7163 17.4085H23.0139C23.1321 16.4435 23.1903 15.4722 23.1882 14.5C23.1898 13.5278 23.1316 12.5565 23.0139 11.5915H25.7163C26.2201 13.4977 26.2201 15.5023 25.7163 17.4085Z" fill="#828282"/>
</svg>
