<svg width="44" height="36" viewBox="0 0 44 36" fill="none" xmlns="http://www.w3.org/2000/svg">
<path d="M2.2 6H41.8C42.3835 6 42.9431 5.68393 43.3556 5.12132C43.7682 4.55871 44 3.79565 44 3C44 2.20435 43.7682 1.44129 43.3556 0.87868C42.9431 0.316071 42.3835 0 41.8 0H2.2C1.61652 0 1.05695 0.316071 0.644365 0.87868C0.231785 1.44129 0 2.20435 0 3C0 3.79565 0.231785 4.55871 0.644365 5.12132C1.05695 5.68393 1.61652 6 2.2 6ZM41.8 30H2.2C1.61652 30 1.05695 30.3161 0.644365 30.8787C0.231785 31.4413 0 32.2044 0 33C0 33.7956 0.231785 34.5587 0.644365 35.1213C1.05695 35.6839 1.61652 36 2.2 36H41.8C42.3835 36 42.9431 35.6839 43.3556 35.1213C43.7682 34.5587 44 33.7956 44 33C44 32.2044 43.7682 31.4413 43.3556 30.8787C42.9431 30.3161 42.3835 30 41.8 30ZM41.8 15H2.2C1.61652 15 1.05695 15.3161 0.644365 15.8787C0.231785 16.4413 0 17.2044 0 18C0 18.7956 0.231785 19.5587 0.644365 20.1213C1.05695 20.6839 1.61652 21 2.2 21H41.8C42.3835 21 42.9431 20.6839 43.3556 20.1213C43.7682 19.5587 44 18.7956 44 18C44 17.2044 43.7682 16.4413 43.3556 15.8787C42.9431 15.3161 42.3835 15 41.8 15Z" fill="#828282"/>
</svg>
