<svg width="33" height="20" viewBox="0 0 33 20" fill="none" xmlns="http://www.w3.org/2000/svg">
<path d="M6.127 0.483333C5.97011 0.331599 5.78511 0.212657 5.58261 0.133333C5.18098 -0.0333635 4.73049 -0.0333635 4.32887 0.133333C4.12637 0.212657 3.94137 0.331599 3.78448 0.483333L0.485152 3.81667C0.174514 4.13051 -3.2731e-09 4.55616 0 5C3.2731e-09 5.44384 0.174514 5.86949 0.485152 6.18333C0.795789 6.49717 1.2171 6.67349 1.65641 6.67349C2.09572 6.67349 2.51704 6.49717 2.82767 6.18333L3.30608 5.68333V18.3333C3.30608 18.7754 3.47988 19.1993 3.78925 19.5118C4.09862 19.8244 4.51822 20 4.95574 20C5.39326 20 5.81285 19.8244 6.12222 19.5118C6.4316 19.1993 6.6054 18.7754 6.6054 18.3333V5.68333L7.0838 6.18333C7.23716 6.33955 7.41961 6.46354 7.62064 6.54815C7.82167 6.63277 8.03729 6.67633 8.25506 6.67633C8.47284 6.67633 8.68846 6.63277 8.88948 6.54815C9.09051 6.46354 9.27297 6.33955 9.42632 6.18333C9.58094 6.0284 9.70367 5.84406 9.78742 5.64096C9.87117 5.43786 9.91429 5.22002 9.91429 5C9.91429 4.77998 9.87117 4.56214 9.78742 4.35904C9.70367 4.15594 9.58094 3.9716 9.42632 3.81667L6.127 0.483333ZM14.8537 3.33333H31.3503C31.7879 3.33333 32.2075 3.15774 32.5168 2.84518C32.8262 2.53262 33 2.10869 33 1.66667C33 1.22464 32.8262 0.800716 32.5168 0.488156C32.2075 0.175595 31.7879 0 31.3503 0H14.8537C14.4162 0 13.9966 0.175595 13.6872 0.488156C13.3779 0.800716 13.204 1.22464 13.204 1.66667C13.204 2.10869 13.3779 2.53262 13.6872 2.84518C13.9966 3.15774 14.4162 3.33333 14.8537 3.33333ZM31.3503 16.6667H14.8537C14.4162 16.6667 13.9966 16.8423 13.6872 17.1548C13.3779 17.4674 13.204 17.8913 13.204 18.3333C13.204 18.7754 13.3779 19.1993 13.6872 19.5118C13.9966 19.8244 14.4162 20 14.8537 20H31.3503C31.7879 20 32.2075 19.8244 32.5168 19.5118C32.8262 19.1993 33 18.7754 33 18.3333C33 17.8913 32.8262 17.4674 32.5168 17.1548C32.2075 16.8423 31.7879 16.6667 31.3503 16.6667ZM31.3503 8.33333H14.8537C14.4162 8.33333 13.9966 8.50893 13.6872 8.82149C13.3779 9.13405 13.204 9.55797 13.204 10C13.204 10.442 13.3779 10.8659 13.6872 11.1785C13.9966 11.4911 14.4162 11.6667 14.8537 11.6667H31.3503C31.7879 11.6667 32.2075 11.4911 32.5168 11.1785C32.8262 10.8659 33 10.442 33 10C33 9.55797 32.8262 9.13405 32.5168 8.82149C32.2075 8.50893 31.7879 8.33333 31.3503 8.33333Z" fill="#828282"/>
</svg>
